<mxfile host="app.diagrams.net" modified="2024-06-01T03:59:22.664Z" agent="Mozilla/5.0 (Windows NT 10.0; Win64; x64) AppleWebKit/537.36 (KHTML, like Gecko) Chrome/125.0.0.0 Safari/537.36" etag="bRa76jhK0kLfcM76Q2Mf" version="24.4.10" type="device">
  <diagram name="Page-1" id="6DoYZxAXIO4Pz1UZmQbd">
    <mxGraphModel dx="1500" dy="807" grid="1" gridSize="10" guides="1" tooltips="1" connect="1" arrows="1" fold="1" page="1" pageScale="1" pageWidth="827" pageHeight="1169" math="0" shadow="0">
      <root>
        <mxCell id="0" />
        <mxCell id="1" parent="0" />
        <mxCell id="YO66RxWyRxaygNTgNS3a-16" value="" style="whiteSpace=wrap;html=1;shape=mxgraph.basic.document" parent="1" vertex="1">
          <mxGeometry x="30" y="40" width="610" height="400" as="geometry" />
        </mxCell>
        <mxCell id="YO66RxWyRxaygNTgNS3a-17" value="&lt;div style=&quot;font-size: 16px;&quot;&gt;&lt;font style=&quot;font-size: 16px;&quot;&gt;{&lt;/font&gt;&lt;/div&gt;&lt;div style=&quot;font-size: 16px;&quot;&gt;&lt;font style=&quot;font-size: 16px;&quot;&gt;&amp;nbsp; &amp;nbsp; &lt;b&gt;question&lt;/b&gt;: &quot;Have you traveled outside of Portugal?&quot;,&lt;/font&gt;&lt;/div&gt;&lt;div style=&quot;font-size: 16px;&quot;&gt;&lt;font style=&quot;font-size: 16px;&quot;&gt;&amp;nbsp; &amp;nbsp; &lt;b&gt;subQuestion&lt;/b&gt;:{&lt;/font&gt;&lt;/div&gt;&lt;div style=&quot;font-size: 16px;&quot;&gt;&lt;font style=&quot;font-size: 16px;&quot;&gt;&amp;nbsp; &amp;nbsp; &amp;nbsp; &amp;nbsp; &lt;b&gt;rule&lt;/b&gt;: &quot;yes&quot;,&lt;/font&gt;&lt;/div&gt;&lt;div style=&quot;font-size: 16px;&quot;&gt;&lt;font style=&quot;font-size: 16px;&quot;&gt;&amp;nbsp; &amp;nbsp; &amp;nbsp; &amp;nbsp; &lt;b&gt;question&lt;/b&gt;: &quot;To which continent?&quot;,&lt;/font&gt;&lt;/div&gt;&lt;div style=&quot;font-size: 16px;&quot;&gt;&lt;font style=&quot;font-size: 16px;&quot;&gt;&amp;nbsp; &amp;nbsp; &amp;nbsp; &amp;nbsp; &lt;b&gt;responseType&lt;/b&gt;: &quot;dropdown&quot;,&lt;/font&gt;&lt;/div&gt;&lt;div style=&quot;font-size: 16px;&quot;&gt;&lt;font style=&quot;font-size: 16px;&quot;&gt;&amp;nbsp; &amp;nbsp; &amp;nbsp; &amp;nbsp; &lt;b&gt;responseRange&lt;/b&gt;: [&quot;Africa&quot;, &quot;Europe&quot;, &quot;Asia&quot;, &quot;Oceania&quot;, &quot;North America&quot;...]&lt;/font&gt;&lt;/div&gt;&lt;div style=&quot;font-size: 16px;&quot;&gt;&lt;font style=&quot;font-size: 16px;&quot;&gt;&amp;nbsp; &amp;nbsp; }&lt;/font&gt;&lt;/div&gt;&lt;div style=&quot;font-size: 16px;&quot;&gt;&lt;font style=&quot;font-size: 16px;&quot;&gt;&amp;nbsp; &amp;nbsp; .&lt;/font&gt;&lt;/div&gt;&lt;div style=&quot;font-size: 16px;&quot;&gt;&lt;font style=&quot;font-size: 16px;&quot;&gt;&amp;nbsp; &amp;nbsp; .&lt;/font&gt;&lt;/div&gt;&lt;div style=&quot;font-size: 16px;&quot;&gt;&lt;font style=&quot;font-size: 16px;&quot;&gt;&amp;nbsp; &amp;nbsp; .&lt;/font&gt;&lt;/div&gt;&lt;div style=&quot;font-size: 16px;&quot;&gt;&lt;font style=&quot;font-size: 16px;&quot;&gt;&amp;nbsp; &amp;nbsp; &lt;b&gt;question&lt;/b&gt;: &quot;Are you taking any medication?&quot;,&lt;/font&gt;&lt;/div&gt;&lt;div style=&quot;font-size: 16px;&quot;&gt;&lt;font style=&quot;font-size: 16px;&quot;&gt;&amp;nbsp; &amp;nbsp; &lt;b&gt;subQuestion&lt;/b&gt;:{&lt;/font&gt;&lt;/div&gt;&lt;div style=&quot;font-size: 16px;&quot;&gt;&lt;font style=&quot;font-size: 16px;&quot;&gt;&amp;nbsp; &amp;nbsp; &amp;nbsp; &amp;nbsp; &lt;b&gt;rule&lt;/b&gt;: &quot;yes&quot;,&lt;/font&gt;&lt;/div&gt;&lt;div style=&quot;font-size: 16px;&quot;&gt;&lt;font style=&quot;font-size: 16px;&quot;&gt;&amp;nbsp; &amp;nbsp; &amp;nbsp; &amp;nbsp; &lt;b&gt;question&lt;/b&gt;: &quot;Which one?&quot;,&lt;/font&gt;&lt;/div&gt;&lt;div style=&quot;font-size: 16px;&quot;&gt;&lt;font style=&quot;font-size: 16px;&quot;&gt;&amp;nbsp; &amp;nbsp; &amp;nbsp; &amp;nbsp; &lt;b&gt;responseType&lt;/b&gt;: &quot;text&quot;&lt;/font&gt;&lt;/div&gt;&lt;div style=&quot;font-size: 16px;&quot;&gt;&lt;font style=&quot;font-size: 16px;&quot;&gt;&amp;nbsp; &amp;nbsp; }&lt;/font&gt;&lt;/div&gt;&lt;div style=&quot;font-size: 16px;&quot;&gt;&lt;font style=&quot;font-size: 16px;&quot;&gt;}&lt;/font&gt;&lt;/div&gt;" style="text;html=1;align=left;verticalAlign=middle;whiteSpace=wrap;rounded=0;" parent="1" vertex="1">
          <mxGeometry x="46.5" y="40" width="577" height="380" as="geometry" />
        </mxCell>
        <mxCell id="nYn4hQ17tmKUkL5U2kDC-1" value="&lt;font style=&quot;font-size: 28px;&quot;&gt;form&lt;/font&gt;" style="swimlane;whiteSpace=wrap;html=1;startSize=30;fillStyle=solid;fillColor=#E0E0E0;strokeColor=#36393d;" vertex="1" parent="1">
          <mxGeometry x="30" y="500" width="230" height="65" as="geometry">
            <mxRectangle x="270" y="480" width="120" height="60" as="alternateBounds" />
          </mxGeometry>
        </mxCell>
        <mxCell id="nYn4hQ17tmKUkL5U2kDC-7" value="" style="rounded=0;whiteSpace=wrap;html=1;fillColor=#f5f5f5;fontColor=#333333;strokeColor=#666666;" vertex="1" parent="nYn4hQ17tmKUkL5U2kDC-1">
          <mxGeometry y="30" width="230" height="40" as="geometry" />
        </mxCell>
        <mxCell id="nYn4hQ17tmKUkL5U2kDC-8" value="&lt;span style=&quot;font-size: 16px;&quot;&gt;pairs[{}]&lt;/span&gt;" style="text;html=1;align=center;verticalAlign=middle;whiteSpace=wrap;rounded=0;" vertex="1" parent="nYn4hQ17tmKUkL5U2kDC-1">
          <mxGeometry x="10" y="35" width="60" height="30" as="geometry" />
        </mxCell>
        <mxCell id="nYn4hQ17tmKUkL5U2kDC-20" value="&lt;font style=&quot;font-size: 16px;&quot;&gt;Object&lt;/font&gt;" style="text;html=1;align=center;verticalAlign=middle;resizable=0;points=[];autosize=1;strokeColor=none;fillColor=none;" vertex="1" parent="nYn4hQ17tmKUkL5U2kDC-1">
          <mxGeometry x="150" y="35" width="70" height="30" as="geometry" />
        </mxCell>
        <mxCell id="nYn4hQ17tmKUkL5U2kDC-23" value="&lt;span style=&quot;font-size: 28px;&quot;&gt;pair&lt;/span&gt;" style="swimlane;whiteSpace=wrap;html=1;startSize=30;fillStyle=solid;fillColor=#E0E0E0;strokeColor=#36393d;" vertex="1" parent="1">
          <mxGeometry x="299" y="530" width="230" height="110" as="geometry">
            <mxRectangle x="270" y="480" width="120" height="60" as="alternateBounds" />
          </mxGeometry>
        </mxCell>
        <mxCell id="nYn4hQ17tmKUkL5U2kDC-24" value="" style="rounded=0;whiteSpace=wrap;html=1;fillColor=#f5f5f5;fontColor=#333333;strokeColor=#666666;" vertex="1" parent="nYn4hQ17tmKUkL5U2kDC-23">
          <mxGeometry y="30" width="230" height="40" as="geometry" />
        </mxCell>
        <mxCell id="nYn4hQ17tmKUkL5U2kDC-25" value="&lt;span style=&quot;font-size: 16px;&quot;&gt;question&lt;/span&gt;" style="text;html=1;align=center;verticalAlign=middle;whiteSpace=wrap;rounded=0;" vertex="1" parent="nYn4hQ17tmKUkL5U2kDC-23">
          <mxGeometry x="10" y="35" width="60" height="30" as="geometry" />
        </mxCell>
        <mxCell id="nYn4hQ17tmKUkL5U2kDC-26" value="" style="rounded=0;whiteSpace=wrap;html=1;fillColor=#f5f5f5;fontColor=#333333;strokeColor=#666666;" vertex="1" parent="nYn4hQ17tmKUkL5U2kDC-23">
          <mxGeometry y="70" width="230" height="40" as="geometry" />
        </mxCell>
        <mxCell id="nYn4hQ17tmKUkL5U2kDC-28" value="" style="rounded=0;whiteSpace=wrap;html=1;fillColor=#f5f5f5;fontColor=#333333;strokeColor=#666666;" vertex="1" parent="nYn4hQ17tmKUkL5U2kDC-23">
          <mxGeometry y="70" width="230" height="40" as="geometry" />
        </mxCell>
        <mxCell id="nYn4hQ17tmKUkL5U2kDC-29" value="&lt;span style=&quot;color: rgb(0, 0, 0); font-family: Helvetica; font-size: 16px; font-style: normal; font-variant-ligatures: normal; font-variant-caps: normal; font-weight: 400; letter-spacing: normal; orphans: 2; text-align: center; text-indent: 0px; text-transform: none; widows: 2; word-spacing: 0px; -webkit-text-stroke-width: 0px; white-space: normal; background-color: rgb(251, 251, 251); text-decoration-thickness: initial; text-decoration-style: initial; text-decoration-color: initial; display: inline !important; float: none;&quot;&gt;sub_question&lt;/span&gt;" style="text;whiteSpace=wrap;html=1;" vertex="1" parent="nYn4hQ17tmKUkL5U2kDC-23">
          <mxGeometry x="10" y="75" width="110" height="30" as="geometry" />
        </mxCell>
        <mxCell id="nYn4hQ17tmKUkL5U2kDC-30" value="&lt;font style=&quot;font-size: 16px;&quot;&gt;String&lt;/font&gt;" style="text;html=1;align=center;verticalAlign=middle;resizable=0;points=[];autosize=1;strokeColor=none;fillColor=none;" vertex="1" parent="nYn4hQ17tmKUkL5U2kDC-23">
          <mxGeometry x="150" y="35" width="70" height="30" as="geometry" />
        </mxCell>
        <mxCell id="nYn4hQ17tmKUkL5U2kDC-31" value="&lt;font style=&quot;font-size: 16px;&quot;&gt;Object&lt;/font&gt;" style="text;html=1;align=center;verticalAlign=middle;resizable=0;points=[];autosize=1;strokeColor=none;fillColor=none;" vertex="1" parent="nYn4hQ17tmKUkL5U2kDC-23">
          <mxGeometry x="150" y="75" width="70" height="30" as="geometry" />
        </mxCell>
        <mxCell id="nYn4hQ17tmKUkL5U2kDC-32" style="edgeStyle=orthogonalEdgeStyle;rounded=0;orthogonalLoop=1;jettySize=auto;html=1;entryX=0.009;entryY=0.144;entryDx=0;entryDy=0;curved=1;entryPerimeter=0;" edge="1" parent="1" source="nYn4hQ17tmKUkL5U2kDC-7" target="nYn4hQ17tmKUkL5U2kDC-23">
          <mxGeometry relative="1" as="geometry" />
        </mxCell>
        <mxCell id="nYn4hQ17tmKUkL5U2kDC-42" value="&lt;font style=&quot;font-size: 28px;&quot;&gt;sub_question&lt;/font&gt;" style="swimlane;whiteSpace=wrap;html=1;startSize=30;fillStyle=solid;fillColor=#E0E0E0;strokeColor=#36393d;" vertex="1" parent="1">
          <mxGeometry x="570" y="600" width="230" height="110" as="geometry">
            <mxRectangle x="270" y="480" width="120" height="60" as="alternateBounds" />
          </mxGeometry>
        </mxCell>
        <mxCell id="nYn4hQ17tmKUkL5U2kDC-43" value="" style="rounded=0;whiteSpace=wrap;html=1;fillColor=#f5f5f5;fontColor=#333333;strokeColor=#666666;" vertex="1" parent="nYn4hQ17tmKUkL5U2kDC-42">
          <mxGeometry y="30" width="230" height="40" as="geometry" />
        </mxCell>
        <mxCell id="nYn4hQ17tmKUkL5U2kDC-44" value="&lt;span style=&quot;font-size: 16px;&quot;&gt;rule&lt;/span&gt;" style="text;html=1;align=center;verticalAlign=middle;whiteSpace=wrap;rounded=0;" vertex="1" parent="nYn4hQ17tmKUkL5U2kDC-42">
          <mxGeometry x="10" y="35" width="40" height="30" as="geometry" />
        </mxCell>
        <mxCell id="nYn4hQ17tmKUkL5U2kDC-45" value="" style="rounded=0;whiteSpace=wrap;html=1;fillColor=#f5f5f5;fontColor=#333333;strokeColor=#666666;" vertex="1" parent="nYn4hQ17tmKUkL5U2kDC-42">
          <mxGeometry y="70" width="230" height="40" as="geometry" />
        </mxCell>
        <mxCell id="nYn4hQ17tmKUkL5U2kDC-46" value="" style="rounded=0;whiteSpace=wrap;html=1;fillColor=#f5f5f5;fontColor=#333333;strokeColor=#666666;" vertex="1" parent="nYn4hQ17tmKUkL5U2kDC-42">
          <mxGeometry y="70" width="230" height="40" as="geometry" />
        </mxCell>
        <mxCell id="nYn4hQ17tmKUkL5U2kDC-47" value="&lt;span style=&quot;color: rgb(0, 0, 0); font-family: Helvetica; font-size: 16px; font-style: normal; font-variant-ligatures: normal; font-variant-caps: normal; font-weight: 400; letter-spacing: normal; orphans: 2; text-align: center; text-indent: 0px; text-transform: none; widows: 2; word-spacing: 0px; -webkit-text-stroke-width: 0px; white-space: normal; background-color: rgb(251, 251, 251); text-decoration-thickness: initial; text-decoration-style: initial; text-decoration-color: initial; display: inline !important; float: none;&quot;&gt;question&lt;/span&gt;" style="text;whiteSpace=wrap;html=1;" vertex="1" parent="nYn4hQ17tmKUkL5U2kDC-42">
          <mxGeometry x="10" y="80" width="110" height="25" as="geometry" />
        </mxCell>
        <mxCell id="nYn4hQ17tmKUkL5U2kDC-48" value="&lt;font style=&quot;font-size: 16px;&quot;&gt;String&lt;/font&gt;" style="text;html=1;align=center;verticalAlign=middle;resizable=0;points=[];autosize=1;strokeColor=none;fillColor=none;" vertex="1" parent="nYn4hQ17tmKUkL5U2kDC-42">
          <mxGeometry x="150" y="35" width="70" height="30" as="geometry" />
        </mxCell>
        <mxCell id="nYn4hQ17tmKUkL5U2kDC-49" value="&lt;font style=&quot;font-size: 16px;&quot;&gt;String&lt;/font&gt;" style="text;html=1;align=center;verticalAlign=middle;resizable=0;points=[];autosize=1;strokeColor=none;fillColor=none;" vertex="1" parent="nYn4hQ17tmKUkL5U2kDC-42">
          <mxGeometry x="150" y="75" width="70" height="30" as="geometry" />
        </mxCell>
        <mxCell id="nYn4hQ17tmKUkL5U2kDC-52" value="" style="rounded=0;whiteSpace=wrap;html=1;fillColor=#f5f5f5;fontColor=#333333;strokeColor=#666666;" vertex="1" parent="1">
          <mxGeometry x="570" y="710" width="230" height="40" as="geometry" />
        </mxCell>
        <mxCell id="nYn4hQ17tmKUkL5U2kDC-53" value="&lt;span style=&quot;color: rgb(0, 0, 0); font-family: Helvetica; font-size: 16px; font-style: normal; font-variant-ligatures: normal; font-variant-caps: normal; font-weight: 400; letter-spacing: normal; orphans: 2; text-align: center; text-indent: 0px; text-transform: none; widows: 2; word-spacing: 0px; -webkit-text-stroke-width: 0px; white-space: normal; background-color: rgb(251, 251, 251); text-decoration-thickness: initial; text-decoration-style: initial; text-decoration-color: initial; display: inline !important; float: none;&quot;&gt;responseType[ ]&lt;/span&gt;" style="text;whiteSpace=wrap;html=1;" vertex="1" parent="1">
          <mxGeometry x="580" y="715" width="120" height="30" as="geometry" />
        </mxCell>
        <mxCell id="nYn4hQ17tmKUkL5U2kDC-54" value="" style="rounded=0;whiteSpace=wrap;html=1;fillColor=#f5f5f5;fontColor=#333333;strokeColor=#666666;" vertex="1" parent="1">
          <mxGeometry x="570" y="750" width="230" height="40" as="geometry" />
        </mxCell>
        <mxCell id="nYn4hQ17tmKUkL5U2kDC-55" value="&lt;span style=&quot;color: rgb(0, 0, 0); font-family: Helvetica; font-size: 16px; font-style: normal; font-variant-ligatures: normal; font-variant-caps: normal; font-weight: 400; letter-spacing: normal; orphans: 2; text-align: center; text-indent: 0px; text-transform: none; widows: 2; word-spacing: 0px; -webkit-text-stroke-width: 0px; white-space: normal; background-color: rgb(251, 251, 251); text-decoration-thickness: initial; text-decoration-style: initial; text-decoration-color: initial; display: inline !important; float: none;&quot;&gt;responseRange[ ]?&lt;/span&gt;" style="text;whiteSpace=wrap;html=1;" vertex="1" parent="1">
          <mxGeometry x="580" y="755" width="140" height="30" as="geometry" />
        </mxCell>
        <mxCell id="nYn4hQ17tmKUkL5U2kDC-56" value="&lt;font style=&quot;font-size: 16px;&quot;&gt;String&lt;/font&gt;" style="text;html=1;align=center;verticalAlign=middle;resizable=0;points=[];autosize=1;strokeColor=none;fillColor=none;" vertex="1" parent="1">
          <mxGeometry x="720" y="715" width="70" height="30" as="geometry" />
        </mxCell>
        <mxCell id="nYn4hQ17tmKUkL5U2kDC-57" value="&lt;font style=&quot;font-size: 16px;&quot;&gt;String&lt;/font&gt;" style="text;html=1;align=center;verticalAlign=middle;resizable=0;points=[];autosize=1;strokeColor=none;fillColor=none;" vertex="1" parent="1">
          <mxGeometry x="720" y="755" width="70" height="30" as="geometry" />
        </mxCell>
        <mxCell id="nYn4hQ17tmKUkL5U2kDC-58" style="edgeStyle=orthogonalEdgeStyle;rounded=0;orthogonalLoop=1;jettySize=auto;html=1;entryX=-0.002;entryY=0.122;entryDx=0;entryDy=0;entryPerimeter=0;curved=1;" edge="1" parent="1" source="nYn4hQ17tmKUkL5U2kDC-28" target="nYn4hQ17tmKUkL5U2kDC-42">
          <mxGeometry relative="1" as="geometry" />
        </mxCell>
      </root>
    </mxGraphModel>
  </diagram>
</mxfile>
